<svg height="64" width="64" xmlns="http://www.w3.org/2000/svg"><g transform="matrix(.53001217 0 0 .52995713 -94.769425 20.8)"><path d="m2.25 0c-1.2388173 0-2.25 1.0113114-2.25 2.25v39.25c0 .279956.22001445.5.5.5h119c.27999 0 .5-.220053.5-.5v-39.25c-.00001-1.2386886-1.0107-2.25-2.25-2.25zm0 1h115.5c.67982 0 1.25.5707275 1.25 1.25v27.28125h-82.84375c-3.025959 5.471006-8.840754 9.1875-15.53125 9.1875-6.693408 0-12.5380022-3.713096-15.5625-9.1875h-4.0625v-27.28125c.0000099-.6792626.5706669-1.25 1.25-1.25zm74.25 31.75h1.625l1.5625 2.625 1.53125-2.625h1.625l-2.4375 4.0625v2.5625h-1.46875v-2.59375z" transform="matrix(1.0062662 0 0 1.0063707 178.80613 -.000001)"/><path d="m253.07761 32.95605c.31738 0 .60742.02832.87012.08398.26172.05566.48535.14746.67285.27539.18652.12695.33203.29688.43457.50781.10254.21191.1543.47266.1543.78418 0 .33594-.0762.61523-.22949.83887-.15234.22461-.37891.40723-.67773.55078.41211.11816.71973.3252.92285.62109s.30469.65234.30469 1.06934c0 .33594-.0654.62695-.19629.87305-.13086.24512-.30762.44629-.52832.60156-.22168.15625-.47461.27148-.75781.3457-.28418.0752-.5752.1123-.875.1123h-3.23635v-6.66406h3.14161zm-.1875 2.69532c.26172 0 .47656-.0625.64551-.18652.16797-.12402.25195-.3252.25195-.60449 0-.15527-.0283-.2832-.084-.38184-.0566-.09961-.13086-.17676-.22461-.2334-.0937-.05566-.20117-.09473-.32227-.11621s-.24805-.03223-.37793-.03223h-1.37402v1.55469h1.48535zm.0859 2.82812c.14355 0 .28027-.01367.41113-.04199s.24609-.0752.34668-.13965c.0996-.06543.17871-.1543.23828-.2666.0596-.11133.0889-.25488.0889-.42871 0-.3418-.0967-.58594-.29004-.73242-.19336-.14551-.44922-.21875-.7666-.21875h-1.59961v1.82812h1.57129z" fill="#fff"/><path d="m473.57574-253.32751c3.48541 3.48541 5.22839 7.75391 5.22839 12.80219 0 5.04938-1.71277 9.27203-5.13831 12.66791-3.63531 3.5766-7.93182 5.36432-12.88947 5.36432-4.89777 0-9.11987-1.77319-12.66513-5.31952-3.54581-3.54584-5.31845-7.78302-5.31845-12.71271 0-4.92859 1.77264-9.19598 5.31845-12.80219 3.4552-3.48651 7.67728-5.22949 12.66513-5.22949 5.0483-.00001 9.31404 1.74297 12.79939 5.22949zm-23.11798 2.34484c-2.94672 2.97638-4.41953 6.46289-4.41953 10.46234 0 3.99835 1.45828 7.45526 4.37424 10.37067 2.9165 2.9165 6.38849 4.37421 10.41705 4.37421s7.53015-1.47223 10.50653-4.4184c2.82593-2.73645 4.23944-6.17706 4.23944-10.32648 0-4.11804-1.43646-7.61346-4.30768-10.48468-2.87067-2.87067-6.34991-4.30658-10.43829-4.30658-4.0884.00001-7.54638 1.44318-10.37176 4.32892zm7.75449 8.70319c-.45029-.98169-1.1243-1.47284-2.02322-1.47284-1.58917 0-2.38345 1.07007-2.38345 3.20911 0 2.13953.79428 3.2085 2.38345 3.2085 1.04938 0 1.79892-.52075 2.24866-1.56451l2.20276 1.17297c-1.04993 1.86548-2.62509 2.79846-4.72549 2.79846-1.6199 0-2.91763-.4967-3.89206-1.48901-.9761-.99341-1.46274-2.36273-1.46274-4.10852 0-1.71503.50229-3.07654 1.50748-4.08502 1.00519-1.00854 2.25702-1.51257 3.75781-1.51257 2.22012 0 3.80981.87488 4.77081 2.62286zm10.36337 0c-.45087-.98169-1.11145-1.47284-1.98242-1.47284-1.62103 0-2.43213 1.07007-2.43213 3.20911 0 2.13953.8111 3.2085 2.43213 3.2085 1.05109 0 1.78717-.52075 2.20728-1.56451l2.25201 1.17297c-1.04828 1.86548-2.62122 2.79846-4.71771 2.79846-1.61768 0-2.9126-.4967-3.88647-1.48901-.97217-.99341-1.45935-2.36273-1.45935-4.10852 0-1.71503.49445-3.07654 1.48285-4.08502.98785-1.00854 2.2453-1.51257 3.7735-1.51257 2.21619 0 3.80365.87488 4.76129 2.62286z" transform="matrix(.872921 0 0 .872921 -202.6862664597 229.6905807413)"/><path d="m258.67819 12.18701c0-.4165-.33789-.75391-.75293-.75391h-4.77344c-.41504 0-.75293.3374-.75293.75391v4.77295h1.33105v5.65186h3.61719v-5.65186h1.33105v-4.77295z"/><circle cx="255.53854" cy="9.17236" r="1.63281"/><path clip-rule="evenodd" d="m255.5239 3.40723c-3.23242 0-5.96875 1.12793-8.20801 3.38379-2.29785 2.3335-3.44629 5.0957-3.44629 8.28467s1.14844 5.93164 3.44629 8.22656c2.29785 2.29443 5.03418 3.44189 8.20801 3.44189 3.21289 0 5.99805-1.15625 8.35352-3.47119 2.21973-2.19727 3.33008-4.92969 3.33008-8.19727s-1.12988-6.02881-3.3877-8.28467c-2.25977-2.25585-5.02442-3.38378-8.2959-3.38378zm.0293 2.09961c2.64844 0 4.89746.93408 6.74707 2.80127 1.86914 1.84717 2.80371 4.10303 2.80371 6.76758 0 2.68359-.91504 4.91064-2.74512 6.68018-1.92871 1.90625-4.19629 2.85889-6.80566 2.85889-2.61035 0-4.85938-.94287-6.74707-2.82959-1.88965-1.88672-2.83301-4.12305-2.83301-6.70947 0-2.58691.9541-4.84229 2.8623-6.76758 1.83009-1.8672 4.06934-2.80128 6.71778-2.80128z" fill-rule="evenodd"/></g></svg>