<svg height="64" width="64" xmlns="http://www.w3.org/2000/svg"><path d="m45.904191 2.397635c-1.197397-1.195889-2.662816-1.793457-4.396629-1.793457-1.71343 0-3.163371.597568-4.350198 1.793457-1.21816 1.237036-1.826677 2.700567-1.826677 4.391344 0 1.690401.608517 3.144117 1.826677 4.360012 1.217782 1.216651 2.667723 1.824789 4.350198 1.824789 1.702858 0 3.178842-.613422 4.427578-1.839887 1.17664-1.164935 1.765147-2.613365 1.765147-4.344914 0-1.731926-.598699-3.195834-1.796096-4.391344zm-.774235 7.932203c-1.021866 1.010163-2.22417 1.514868-3.606917 1.514868-1.383125 0-2.575243-.499797-3.576347-1.49977-1.001104-.999972-1.501653-2.185291-1.501653-3.555958 0-.579826.09154-1.127942.272549-1.644727l1.63887.725348h-.118155v.734973h.580016c0 .10381-.01038.207243-.01038.310674v.176288h-.569637v.734973h.673067c.09324.54887.300293.993932.579824 1.346129.579824.766305 1.511658 1.180412 2.526357 1.180412.662869 0 1.263083-.196673 1.61528-.393722l-.248768-1.14908c-.217435.114001-.703643.269151-1.180037.269151-.517915 0-1.00431-.155148-1.335744-.528109-.155339-.175911-.269152-.414107-.34144-.724781h2.25097l3.198475 1.415778c-.221584.392594-.502811.755361-.846331 1.087553zm-4.022533-3.2383-.01359-.01038.0234.01038h-.0098zm1.925573-.486963h.09249v-.734972h-1.753067l-.712133-.315205c.06134-.137784.133819-.261035.218373-.357483.321056-.3941.776502-.55944 1.273654-.55944.455632 0 .87993.134386 1.149082.248389l.28991-1.180412c-.37296-.165341-.921456-.310298-1.552998-.310298-.973168 0-1.801568.393346-2.391776 1.055841-.130986.151373-.244613.321244-.347669.50093l-2.03392-.900126c.197051-.295576.428832-.579448.697227-.850109.970528-.989779 2.156981-1.484669 3.560864-1.484669 1.403509 0 2.595626.49489 3.576346 1.484669.990534.979211 1.485803 2.174721 1.485803 3.587291 0 .465445-.05285.904467-.15704 1.318196zm-15.440261-5.998634c-1.712708 0-3.16299.597494-4.349826 1.793263-1.217888 1.236395-1.826575 2.700243-1.826575 4.39026 0 1.690018.608687 3.143775 1.826575 4.359984 1.217889 1.21595 2.668177 1.824054 4.349826 1.824054 1.702871 0 3.179039-.613023 4.427981-1.839841 1.176484-1.1642 1.764464-2.612525 1.764464-4.344202s-.598336-3.194751-1.795522-4.39026c-1.197181-1.195758-2.662474-1.793258-4.396923-1.793258zm.01606 1.112703c1.403705 0 2.595194.494763 3.57551 1.484293.991186.978921 1.48652 2.17469 1.48652 3.586527 0 1.422188-.484983 2.602688-1.455462 3.540464-1.02172 1.009971-2.224085 1.514829-3.606568 1.514829-1.383517 0-2.575531-.49968-3.576549-1.499302-1.001018-.99988-1.501529-2.185039-1.501529-3.555991 0-1.370697.505684-2.566205 1.517054-3.586527.970483-.989525 2.157319-1.484293 3.561024-1.484293zm.857115 1.942314c0 .477759-.387338.865059-.865149.865059-.477806 0-.86515-.3873-.86515-.865059s.387344-.865059.86515-.865059c.477811 0 .865149.3873.865149.865059zm.799163 1.597635c0-.220727-.179086-.39928-.399582-.39928h-2.529462c-.220495 0-.399581.178548-.399581.39928v2.529459h.705472v2.995498h1.917155v-2.995498h.705993v-2.529459zm28.502096.06548h-4.495254v1.06484h4.495254zm0 1.987608h-4.495254v1.064559h4.495254zm-2.34416-6.705719c-1.713232 0-3.163502.597224-4.350349 1.793006-1.217882 1.236638-1.826573 2.69998-1.826573 4.391037 0 1.690268.608688 3.14326 1.826573 4.359459 1.217379 1.216201 2.668178 1.824319 4.350349 1.824319 1.70288 0 3.178522-.61354 4.427461-1.83932 1.175968-1.164973 1.764987-2.613314 1.764987-4.344461 0-1.732198-.598843-3.195275-1.796043-4.391037-1.197179-1.195779-2.662997-1.793003-4.396405-1.793003zm.01499 1.112431c1.403691 0 2.595718.495032 3.576544 1.484812.990667.978925 1.485494 2.174181 1.485494 3.5868 0 1.422181-.48447 2.602155-1.454443 3.539939-1.022229 1.01024-2.224608 1.514569-3.607595 1.514569-1.383002 0-2.575007-.499417-3.57603-1.499568-1.001027-.999365-1.50153-2.184778-1.50153-3.554944 0-1.371482.505676-2.566737 1.517558-3.5868.969971-.98978 2.156291-1.484812 3.559997-1.484812zm1.436864 14.546905c.228256 0 .439952.03623.636635.108684.196683.07245.366453.181653.510341.326564.143376.144912.255691.326565.336438.543933.08126.217881.121632.473543.121632.766991 0 .257214-.03312.494248-.09886.712129-.06625.217368-.166149.405746-.299685.563599-.134054.158367-.300715.283092-.500512.373663-.199792.09057-.434774.136114-.70599.136114h-1.525338v-3.531666h1.525338v-.000011zm-.05435 2.877503c.112314 0 .221008-.01811.326597-.05434s.199787-.09626.282091-.18062c.08229-.08384.148544-.193042.198234-.328118.04917-.135075.07402-.300172.07402-.494248 0-.178034-.01707-.338468-.05179-.481827-.03467-.143358-.09162-.266012-.170811-.36797-.07919-.101958-.183744-.18062-.314176-.234962-.130427-.05434-.291397-.08125-.482395-.08125h-.554341v2.223334h.692544v.000006zm-4.364318-2.877503 1.475651 2.369279h.0083v-2.369279h.728768v3.531666h-.776902l-1.469959-2.364621h-.0099v2.364621h-.728767v-3.531666h.772763zm-8.61891.940886c-.04606-.07452-.104035-.139734-.173393-.195629-.06936-.05589-.147513-.09989-.234986-.130936-.08747-.03157-.179086-.0471-.274324-.0471-.174946 0-.323493.03364-.445645.10144-.122151.06728-.221009.157847-.296579.271709-.07608.113856-.131469.24324-.166148.388151-.03466.144911-.05178.294995-.05178.449737 0 .148531.01707.292923.05178.432662.03466.140254.09006.266532.166148.378321.07557.112303.174428.201839.296579.269637.122152.0678.270699.101439.445645.101439.237059 0 .42287-.07246.556407-.217881.133536-.144912.215317-.336401.244818-.573949h.752061c-.01966.220987-.07091.420759-.153206.598788-.08229.178548-.191509.330189-.326598.455948-.13509.125759-.293474.221507-.475146.287751-.181158.06625-.380946.09937-.598336.09937-.270698 0-.513969-.0471-.73032-.141286-.215836-.09367-.398542-.223579-.547094-.388152-.149066-.165092-.262934-.359167-.342128-.581712-.07919-.223059-.119046-.462679-.119046-.720413 0-.263946.03986-.508738.119046-.734902.07919-.226165.193062-.423346.342128-.591544.148547-.168198.331258-.300173.547094-.395915.216351-.09574.459622-.143358.73032-.143358.194615 0 .37836.02795.551754.08436.172874.05589.328151.137667.464794.245312.137161.107131.249996.240134.339022.398501.08903.158367.144926.340021.168215.544446h-.752061c-.01293-.08902-.04299-.170789-.08902-.244792zm-5.161407-.940886 1.47565 2.369279h.0083v-2.369279h.728766v3.531666h-.776902l-1.469957-2.364621h-.0099v2.364621h-.728767v-3.531666h.772763zm-11.589356 0h.871101l.82711 1.394762.821933-1.394762h.865928l-1.311054 2.176243v1.355428h-.778455v-1.375096zm-1.436832 0c.168216 0 .32246.01501.461174.04451.138715.0295.257242.07815.356619.145945.09886.06728.17546.157333.230328.269117.05435.112303.08178.25049.08178.415582 0 .178034-.04039.326046-.121632.444565-.08074.119034-.200308.215815-.359205.29189.218423.06262.381465.172342.489122.329151.107656.156809.161489.345712.161489.566704 0 .178034-.03466.332257-.104036.462679-.06936.129904-.163043.236515-.280016.318801-.117493.08281-.251549.143873-.401649.183207-.150619.03985-.304863.05951-.463761.05951h-1.715293v-3.531666h1.66508zm-.09886 1.428404c.138195 0 .252583-.03312.341609-.09885.08903-.06573.133536-.172342.133536-.320353 0-.08229-.015-.150084-.04452-.202359-.03-.05279-.06936-.09368-.119046-.123692-.04966-.0295-.106623-.0502-.170807-.06159-.06419-.01138-.13147-.01708-.200827-.01708h-.727733v.823919h.787778zm.04505 1.498782c.07608 0 .148546-.0072.217903-.02225.06936-.01501.130431-.03985.183745-.07401.05279-.03468.09472-.08177.126292-.141287.03159-.059.04712-.135075.04712-.227197 0-.18114-.05125-.310524-.153725-.388152-.102483-.07711-.237573-.115928-.406307-.115928h-.847813v.968825h.832802zm-8.543882-15.89095c1.612273 1.612388 2.418678 3.586787 2.418678 5.92243 0 2.335898-.792428 4.289086-2.377284 5.860339-1.682163 1.654291-3.669726 2.48131-5.963676 2.48131-2.2659956 0-4.2193871-.820015-5.8591099-2.460867-1.6407683-1.640344-2.4606134-3.600508-2.4606134-5.880782 0-2.27999.8198451-4.254131 2.4606134-5.92243 1.5983238-1.613151 3.5516924-2.419218 5.8591099-2.419218 2.335885 0 4.309471.806067 5.922282 2.419218zm-10.6960209 1.084494c-1.3633255 1.376906-2.0449976 2.989802-2.0449976 4.840019 0 1.849652.6749543 3.448855 2.0237944 4.797805 1.3498805 1.34895 2.9559451 2.023557 4.8197931 2.023557s3.483889-.681325 4.861192-2.044254c1.307442-1.265629 1.96116-2.857575 1.96116-4.777113 0-1.90505-.664591-3.522101-1.993241-4.850353-1.32814-1.328003-2.937841-1.99227-4.829111-1.99227-1.8912699 0-3.4916577.667635-4.7985899 2.002609zm3.5874096 4.026189c-.2080624-.45414-.5196443-.681097-.935792-.681097-.7349611 0-1.1024555.494772-1.1024555 1.484315 0 .989769.3674944 1.484286 1.1024555 1.484286.4855051 0 .8322997-.240905 1.0403623-.723759l1.019126.542628c-.486014.862991-1.2147891 1.29488-2.1863032 1.29488-.749447 0-1.3498529-.229811-1.8006817-.689114-.4513328-.459562-.6770176-1.093024-.6770176-1.900391 0-.793646.2329115-1.423467.6977174-1.890029.4648053-.466561 1.044512-.699449 1.7385835-.699449 1.0274261 0 1.7623916.404447 2.2075116 1.213109zm4.7949763 0c-.208599-.45414-.514504-.681097-.917184-.681097-.749983 0-1.125246.494772-1.125246 1.484315 0 .989769.375263 1.484286 1.125246 1.484286.486551 0 .827105-.240905 1.021218-.723759l1.041912.542628c-.484996.862991-1.21273 1.29488-2.18269 1.29488-.748434 0-1.347285-.229811-1.798109-.689114-.449783-.459562-.675436-1.093024-.675436-1.900391 0-.793646.228762-1.423467.686308-1.890029.457038-.466561 1.038808-.699449 1.745843-.699449 1.02534 0 1.759792.404447 2.202852 1.213109zm48.063418-9.612217h-61.6030421c-.66096219 0-1.19873904.537721-1.19873904 1.198355v20.931234c0 .149311.12111838.270411.27069841.270411h63.45860273c.149589 0 .270699-.121106.270699-.270411v-20.931234c0-.660634-.537776-1.198355-1.198219-1.198355zm-61.6030421.541341h61.6030421c.362315 0 .656827.294736.656827.657014v14.514307h-44.02983c-1.613845 2.91761-4.723527 4.898738-8.291792 4.898738-3.5693028 0-6.6779462-1.979315-8.2907573-4.898738h-2.30482671c0-6.092695 0-14.514307 0-14.514307-.00000528-.362273.29502069-.657014.65733691-.657014z" transform="translate(0 22)"/></svg>