<svg height="64" width="64" xmlns="http://www.w3.org/2000/svg"><path d="m45.904452 2.402768c-1.197397-1.195889-2.662816-1.793457-4.396629-1.793457-1.713429 0-3.163371.597568-4.350197 1.793457-1.21816 1.237036-1.826678 2.700567-1.826678 4.391345 0 1.690401.608518 3.144117 1.826678 4.360012 1.217781 1.21665 2.667722 1.824789 4.350197 1.824789 1.702859 0 3.178843-.613422 4.427579-1.839888 1.17664-1.164934 1.765146-2.613364 1.765146-4.344913 0-1.731926-.598698-3.195834-1.796096-4.391345zm-.774234 7.932203c-1.021867 1.010163-2.224171 1.514868-3.606918 1.514868-1.383125 0-2.575242-.499797-3.576346-1.499769s-1.501654-2.185291-1.501654-3.555959c0-.579825.09154-1.127942.27255-1.644726l1.638869.725347h-.118155v.734973h.580016c0 .10381-.01038.207243-.01038.310674v.176288h-.569638v.734973h.673067c.09324.54887.300293.993932.579824 1.34613.579824.766304 1.511659 1.180411 2.526357 1.180411.66287 0 1.263083-.196672 1.61528-.393722l-.248768-1.14908c-.217434.114001-.703642.269151-1.180037.269151-.517915 0-1.004309-.155148-1.335744-.528109-.155339-.175911-.269152-.414107-.34144-.724781h2.250971l3.198474 1.415778c-.221584.392594-.50281.755362-.84633 1.087553zm-4.022534-3.2383-.01359-.01038.0234.01038h-.0098zm1.925574-.486962h.09249v-.734973h-1.753066l-.712134-.315204c.06134-.137784.133819-.261035.218374-.357483.321056-.3941.776501-.559441 1.273653-.559441.455632 0 .879931.134386 1.149083.248389l.289909-1.180412c-.37296-.165341-.921456-.310297-1.552997-.310297-.973168 0-1.801568.393345-2.391776 1.055841-.130987.151372-.244614.321244-.34767.50093l-2.03392-.900127c.197051-.295576.428832-.579448.697227-.850108.970528-.98978 2.156981-1.48467 3.560864-1.48467 1.403509 0 2.595627.49489 3.576347 1.48467.990533.97921 1.485802 2.174721 1.485802 3.587291 0 .465445-.05285.904467-.15704 1.318195zm9.648975-.692548c.24638-1.556236 1.341608-2.387904 2.714797-2.387904 1.97408 0 3.177478 1.432532 3.177478 3.34275 0 1.864165-1.280512 3.311722-3.208576 3.311722-1.326566 0-2.514436-.815902-2.730287-2.418188h1.557945c.04656.831691.586454 1.124599 1.357664 1.124599.878891 0 1.449776-.816405 1.449776-2.064186 0-1.309881-.493248-2.002606-1.419248-2.002606-.678565 0-1.264496.246598-1.388192 1.093813l.452896-.003-1.226165 1.226573-1.226203-1.226573zm2.741165-5.311475c-1.713221 0-3.163525.598012-4.349858 1.793006-1.217872 1.236923-1.82709 2.700768-1.82709 4.391037 0 1.690268.609218 3.143259 1.82709 4.359723 1.217388 1.216222 2.667693 1.82432 4.349858 1.82432 1.702912 0 3.178571-.61354 4.427499-1.839586 1.176507-1.164972 1.765024-2.613052 1.765024-4.344461 0-1.731428-.598341-3.195274-1.79608-4.391037-1.197168-1.19499-2.662475-1.793002-4.396443-1.793002zm.01552 1.113218c1.403723 0 2.595227.494506 3.576064 1.484306.990699.978902 1.486006 2.173896 1.486006 3.586519 0 1.422181-.484955 2.602174-1.455478 3.540727-1.021189 1.009713-2.224101 1.514569-3.606592 1.514569-1.383013 0-2.575009-.499944-3.57606-1.499568-1.001011-.999869-1.501538-2.184774-1.501538-3.555728 0-1.370955.505175-2.566453 1.517064-3.586519.969999-.9898 2.156817-1.484306 3.560534-1.484306zm-11.601301 15.487276c-.04606-.07452-.104037-.139734-.173395-.195629-.06936-.05589-.147514-.09989-.234988-.130937-.08747-.03158-.179087-.04711-.274326-.04711-.174948 0-.323495.03365-.445648.101439-.122153.06728-.221012.157848-.296582.271709-.07608.113856-.13147.243239-.166149.388151-.03466.144911-.05178.294996-.05178.449738 0 .148531.01707.292923.05178.432662.03466.140253.09006.266531.166149.37832.07557.112304.174429.20184.296582.269637.122153.0678.2707.101439.445648.101439.23706 0 .422874-.07245.556411-.217881.133538-.144911.215319-.336401.24482-.573949h.752067c-.01966.220987-.07091.42076-.153207.598788-.0823.178548-.191511.33019-.326601.455949s-.293475.221506-.475149.287751c-.181159.06624-.380949.09937-.598341.09937-.270701 0-.513973-.04711-.730326-.141287-.215838-.09368-.398545-.223578-.547098-.388151-.148548-.165092-.262936-.359168-.342131-.581713-.07919-.223059-.119047-.462679-.119047-.720413 0-.263945.03986-.508738.119047-.734902.07919-.226165.193578-.423346.342131-.591543.148553-.168198.33126-.300174.547098-.395916.216353-.09574.459625-.143358.730326-.143358.194617 0 .378363.02793.551238.08436.173395.05589.328674.137667.465317.245312.137164.107131.249999.240134.339025.398501.08903.158367.144928.340021.168217.544447h-.752067c-.01346-.08902-.04299-.170784-.08902-.244793zm-5.161449-.940881 1.475662 2.369279h.0083v-2.369279h.728773v3.531666h-.776909l-1.469969-2.364621h-.0099v2.364621h-.728772v-3.531666h.772769zm18.201716 0 1.320901 3.531666h-.806411l-.267082-.786658h-1.320902l-.277429.786658h-.781568l1.335909-3.531666zm.04453 2.165368-.445125-1.294877h-.01035l-.459627 1.294877h.915104zm-4.420791.493215c.04299.08229.09938.14905.170289.200287.07091.05125.153726.08902.249478.113856.09524.02485.193579.03725.296062.03725.06884 0 .142855-.0057.22205-.0176.07868-.01139.152693-.03365.222053-.06676.06884-.03259.126288-.07815.172875-.136114.04555-.05745.06884-.130936.06884-.219953 0-.09574-.03051-.172856-.09162-.232376-.06055-.05951-.140778-.108683-.239125-.148531-.09886-.03932-.211179-.07401-.335919-.104026-.125259-.02952-.25207-.06262-.38043-.09885-.131984-.03312-.260349-.07349-.385608-.121106-.124739-.04759-.23706-.109717-.335919-.185797-.09834-.07556-.178568-.17027-.239127-.284126-.06107-.113856-.09161-.251523-.09161-.412996 0-.181653.0388-.338987.115941-.472509.07764-.133523.179088-.244793.303827-.334329.125259-.08902.26708-.154742.42546-.197701.157865-.04298.31625-.06417.474115-.06417.18478 0 .361802.02072.531567.06211.169259.04091.320395.108164.451862.200287.131984.09264.236544.210637.314181.353995.07712.143873.115941.317768.115941.522194h-.753621c-.0067-.105578-.02848-.193042-.06625-.261873-.03781-.06935-.08799-.123693-.150624-.16354-.06211-.03932-.133536-.0678-.213765-.08384-.08023-.01653-.168216-.02485-.263454-.02485-.06211 0-.12474.0067-.186852.01966-.06263.01346-.119047.03625-.16977.06935-.05125.03312-.09265.07401-.125773.123692-.0326.04966-.04918.112303-.04918.187864 0 .06935.01293.125759.03933.168198.0264.04298.07816.08281.155799.119034.07764.03625.184265.07245.320909.108684.136643.03625.315733.08281.536229.1387.06573.01293.157355.03726.273808.07194.116976.03466.233435.08954.348341.165612.115424.07608.2148.177514.299168.304312.08385.126797.125776.289304.125776.487518 0 .161473-.03157.311556-.0942.450257-.06262.1387-.155798.258248-.279499.358653-.123707.10092-.276912.179068-.460139.234963-.182709.05641-.394405.08436-.635608.08436-.194617 0-.383022-.02432-.566248-.07194-.183227-.04812-.344718-.123172-.484467-.225644-.140269-.102473-.251551-.233409-.334366-.391777-.0823-.158367-.122153-.346231-.118528-.564112h.75362c-.000016.118519.0212.219439.06417.301725zm-25.250831-2.658583h.870595l.827117 1.394762.822458-1.394762h.865936l-1.311584 2.176242v1.355429h-.778462v-1.375095zm-1.436842 0c.168216 0 .321942.015.460658.04452s.257763.07815.357141.145944c.09886.06728.175462.157334.230329.269118.05435.112303.08178.25049.08178.415582 0 .178033-.04039.326045-.121634.444565-.08074.119033-.200828.215814-.359208.29189.218425.06262.381469.172342.489126.329151s.161491.345712.161491.566704c0 .178034-.03466.332257-.104037.462679-.06936.129903-.163044.236515-.280538.318801-.116974.08281-.251032.143873-.401138.183206-.15062.03985-.304865.05951-.463764.05951h-1.715308v-3.531666h1.6651v.000005zm-.09938 1.428399c.138716 0 .252585-.03312.341612-.09885.08955-.06573.134057-.172342.134057-.320353 0-.08229-.015-.150085-.04452-.202359-.03-.05278-.06936-.09368-.119047-.123693-.04966-.02952-.106624-.05019-.170809-.06159-.0647-.01139-.13147-.01707-.200828-.01707h-.727739v.823918h.787265zm.04553 1.498782c.07608 0 .148548-.0073.217906-.02226.06936-.015.130432-.03985.183746-.07401.05279-.03466.09472-.08177.126292-.141286.03106-.059.04712-.135076.04712-.227198 0-.18114-.05125-.310523-.153726-.388151-.102484-.07711-.238094-.115928-.40631-.115928h-.84782v.968825h.83281zm1.832302-18.583169c-1.712722 0-3.163017.597755-4.349861 1.793264-1.217898 1.236655-1.82659 2.700502-1.82659 4.390519 0 1.690018.608692 3.143515 1.82659 4.359984 1.217898 1.215695 2.668198 1.824054 4.349861 1.824054 1.702884 0 3.179065-.613022 4.428016-1.839841 1.176494-1.164459 1.764478-2.612525 1.764478-4.344202s-.598341-3.195011-1.795536-4.39052c-1.197196-1.195509-2.6625-1.793258-4.396958-1.793258zm.01606 1.112698c1.403716 0 2.595215.495022 3.575538 1.484553.991194.978921 1.486532 2.17469 1.486532 3.586527 0 1.422188-.484986 2.602429-1.455473 3.540464-1.021729 1.009971-2.224102 1.514829-3.606597 1.514829-1.383528 0-2.575551-.499681-3.576577-1.499561-1.001027-.999621-1.501542-2.18478-1.501542-3.555732 0-1.370951.505688-2.566206 1.517066-3.586527.970497-.989525 2.157336-1.484553 3.561053-1.484553zm.857116 1.942575c0 .477759-.387341.865059-.865156.865059-.47781 0-.865157-.3873-.865157-.865059s.387347-.86506.865157-.86506c.477815 0 .865156.387301.865156.86506zm.799169 1.597634c0-.220727-.179086-.39954-.399584-.39954h-2.529482c-.220498 0-.399585.178807-.399585.39954v2.529459h.705479v2.995243h1.91717v-2.995243h.705998v-2.529459zm-12.21317-1.957317c1.612314 1.612388 2.418698 3.586787 2.418698 5.92243 0 2.335897-.792434 4.28934-2.377303 5.860325-1.682176 1.654305-3.669728 2.481324-5.963724 2.481324-2.2660421 0-4.2194213-.820043-5.8591296-2.460881-1.6407815-1.640076-2.460661-3.60024-2.460661-5.880768 0-2.280018.8198795-4.254159 2.460661-5.92243 1.5983089-1.612897 3.5516928-2.419218 5.8591296-2.419218 2.335904 0 4.309506.806321 5.922329 2.419218zm-10.6960756 1.084752c-1.3633645 1.376906-2.0450467 2.989803-2.0450467 4.839737s.6749598 3.449137 2.0238104 4.797837c1.349864 1.349204 2.9559691 2.023811 4.8198329 2.023811 1.863863 0 3.483917-.681338 4.861231-2.044253 1.307452-1.265912 1.961175-2.857857 1.961175-4.777395 0-1.904795-.664568-3.521819-1.993256-4.850099-1.328124-1.327975-2.937837-1.992242-4.82915-1.992242-1.8913134 0-3.4917092.66763-4.7985966 2.002604zm3.5874432 4.02619c-.208064-.454141-.5196486-.681352-.935832-.681352-.7349952 0-1.1024923.495026-1.1024923 1.484569 0 .989769.3674971 1.484286 1.1024923 1.484286.4855365 0 .8323066-.240904 1.0403704-.723791l1.019134.542656c-.48599.862991-1.2147711 1.294852-2.1862927 1.294852-.7495131 0-1.3499194-.229779-1.8007237-.689086-.4513088-.459563-.6769957-1.093307-.6769957-1.900646 0-.793391.2329136-1.42324.6977232-1.889774.4647536-.466561 1.0444927-.699731 1.7385973-.699731 1.0273792 0 1.7623736.404729 2.2075286 1.213363zm4.7949824 0c-.208573-.454141-.514508-.681352-.917191-.681352-.749962 0-1.125255.495026-1.125255 1.484569 0 .989769.375293 1.484286 1.125255 1.484286.486554 0 .827111-.240904 1.021226-.723791l1.041892.542656c-.484972.862991-1.21268 1.294852-2.18268 1.294852-.748439 0-1.347268-.229779-1.798123-.689086-.449786-.459563-.675469-1.093307-.675469-1.900646 0-.793391.228791-1.42324.686369-1.889774.457013-.466561 1.038788-.699731 1.745829-.699731 1.025348 0 1.759834.404729 2.202898 1.213363zm48.063823-9.615843h-61.6030217c-.66096753 0-1.19874871.537721-1.19874871 1.198355v20.931234c0 .149311.12111935.270411.27070059.270411h63.45859582c.149589 0 .270704-.121106.270704-.270411v-20.931234c0-.660634-.537782-1.198355-1.19823-1.198355zm-61.6030217.541346h61.6030277c.362309 0 .656826.294736.656826.657015v14.517666h-44.030183c-1.613857 2.91787-4.723564 4.898998-8.291858 4.898998-3.5693313 0-6.6779997-1.979316-8.2908237-4.898998h-2.30433125c0-6.092954 0-14.517666 0-14.517666-.00000528-.362279.29502304-.657015.65734225-.657015z" transform="translate(0 22)"/></svg>