<svg height="64" width="64" xmlns="http://www.w3.org/2000/svg"><path d="m53.32626 2.3974255c-1.197398-1.195889-2.662816-1.793457-4.39663-1.793457-1.713429 0-3.163371.597568-4.350198 1.793457-1.21816 1.237036-1.826677 2.700567-1.826677 4.391345 0 1.690401.608517 3.144117 1.826677 4.3600115 1.217782 1.216652 2.667723 1.824789 4.350198 1.824789 1.702859 0 3.178843-.613422 4.42758-1.839887 1.17664-1.1649345 1.765146-2.6133645 1.765146-4.3449135 0-1.731926-.598698-3.195835-1.796096-4.391345zm-.774235 7.9322025c-1.021867 1.010165-2.224171 1.514869-3.606918 1.514869-1.383125 0-2.575242-.499798-3.576346-1.49977-1.001105-.9999715-1.501654-2.1852905-1.501654-3.5559585 0-.579825.09154-1.127942.272549-1.644727l1.63887.725348h-.118155v.734973h.580016c0 .10381-.01038.207243-.01038.310674v.176288h-.569638v.734973h.673067c.09324.548871.300293.993932.579824 1.34613.579824.766304 1.511659 1.1804115 2.526357 1.1804115.66287 0 1.263083-.196673 1.615281-.3937225l-.248768-1.14908c-.217435.114001-.703643.269151-1.180038.269151-.517915 0-1.004309-.155147-1.335744-.528109-.155339-.17591-.269152-.414107-.34144-.724781h2.250971l3.198475 1.415778c-.221584.392594-.502811.755362-.846331 1.0875525zm-4.022534-3.2382995-.01359-.01038.0234.01038h-.0098zm1.925574-.486962h.09249v-.734973h-1.753067l-.712134-.315204c.06134-.137784.133819-.261036.218374-.357484.321056-.394099.776501-.55944 1.273653-.55944.455632 0 .879931.134386 1.149083.248389l.289909-1.180412c-.37296-.165341-.921456-.310298-1.552997-.310298-.973168 0-1.801568.393346-2.391776 1.055841-.130987.151373-.244614.321245-.34767.500931l-2.033919-.900127c.197051-.295576.428832-.579448.697227-.850109.970528-.989779 2.156981-1.484669 3.560864-1.484669 1.40351 0 2.595627.49489 3.576347 1.484669.990534.979211 1.485803 2.174721 1.485803 3.587292 0 .465445-.05285.904467-.15704 1.318196zm-16.677906-5.998645c-1.712722 0-3.163276.597509-4.35012 1.793305-1.217899 1.236684-1.826591 2.700566-1.826591 4.390622 0 1.690057.608692 3.143589 1.826591 4.3598255 1.217898 1.215978 2.668198 1.824097 4.35012 1.824097 1.702885 0 3.179065-.612777 4.427503-1.839625 1.177008-1.1644855 1.764998-2.6125845 1.764998-4.3443025 0-1.731717-.598341-3.195085-1.795537-4.390622-1.197196-1.195791-2.663026-1.7933-4.396964-1.7933zm.01553 1.112729c1.403717 0 2.595734.495034 3.576058 1.484328.991194.979204 1.486532 2.17474 1.486532 3.58687 0 1.422221-.484986 2.60249-1.455473 3.5402925-1.021729 1.010254-2.224103 1.515123-3.607112 1.515123s-2.575032-.499952-3.575799-1.499596c-1.001545-.9999035-1.501801-2.1850895-1.501801-3.5558135 0-1.370983.505689-2.56652 1.517066-3.586871.970233-.989299 2.157331-1.484333 3.560529-1.484333zm.857645 1.942619c0 .477768-.387341.86508-.865157.86508-.477809 0-.865156-.387312-.865156-.86508 0-.477773.387347-.86508.865156-.86508.477816 0 .865157.387307.865157.86508zm.799169 1.597673c0-.220733-.179087-.39955-.399584-.39955h-2.529483c-.220497 0-.399585.178812-.399585.39955v2.529517h.705479v2.9953135h1.91717v-2.9953135h.705998v-2.529517zm15.809915 11.9473395c-.04606-.07452-.104037-.139736-.173395-.195633-.06936-.0559-.147514-.09989-.234988-.13094-.08747-.03158-.179088-.04711-.274326-.04711-.174948 0-.323496.03365-.445649.101441-.122153.06728-.221012.157852-.296581.271716-.07608.113858-.131471.243245-.16615.38816-.03466.144915-.05178.295002-.05178.449748 0 .148534.01707.29293.05178.432672.03466.140257.09006.266538.16615.37833.07557.112305.174428.201844.296581.269643.122153.0678.270701.101441.445649.101441.23706 0 .422873-.07246.556411-.217886.133538-.144915.215319-.336409.24482-.573963h.752067c-.01966.220992-.07091.42077-.153207.598803-.0823.178552-.191511.330197-.326601.455958-.135091.125763-.293476.221512-.475149.287758-.18116.06625-.38095.09937-.598341.09937-.270701 0-.513973-.04711-.730326-.141289-.215839-.09368-.398546-.223584-.547099-.388161-.149067-.165096-.262936-.359176-.342131-.581726-.07919-.223064-.119047-.46269-.119047-.72043 0-.263951.03986-.508749.119047-.734919.07919-.22617.193064-.423356.342131-.591557.148548-.168202.33126-.30018.547099-.395925.216353-.09574.459625-.143362.730326-.143362.194616 0 .378362.02793.551758.08436.172875.0559.328154.13767.464797.245318.137163.107133.249998.240139.339026.39851.08903.158371.144927.340028.168216.544459h-.752067c-.01293-.08901-.04293-.170788-.08902-.244798zm-5.161449-.940902 1.475661 2.369335h.0083v-2.369335h.728773v3.531748h-.776909l-1.469969-2.364676h-.0099v2.364676h-.728773v-3.531748h.772769zm-12.662942 0h.871109l.827117 1.394796.821939-1.394796h.865936l-1.311065 2.176293v1.355461h-.778462v-1.375127zm-1.436842 0c.168476 0 .321942.015.460658.04452s.257763.07815.357141.145948c.09886.06728.175982.157337.230329.269124.05435.112305.08178.250495.08178.415591 0 .178038-.04039.326053-.121633.444576-.08074.119036-.200829.215819-.359208.291896.218425.06262.381468.172346.489125.329159.107657.156812.161491.34572.161491.566718 0 .178037-.03466.332264-.104037.462689-.06936.129906-.163044.23652-.280018.318809-.117494.08281-.251551.143876-.401652.18321-.15062.03985-.304866.05952-.463764.05952h-1.715309v-3.531749h1.665095v.000005zm-.09912 1.428438c.138456 0 .252585-.03313.341871-.09885.08903-.06573.133538-.172346.133538-.320361 0-.08229-.015-.150087-.04452-.202364-.03-.05278-.06936-.09368-.119047-.123695-.04945-.02952-.106364-.05019-.170808-.06159-.06444-.01139-.131211-.01707-.200569-.01707h-.727999v.823938h.787525zm.04532 1.498817c.07608 0 .148547-.0073.218165-.02226.0691-.015.130692-.03986.183486-.07401.05279-.03466.09472-.08178.126293-.141289.03159-.059.04712-.135079.04712-.227204 0-.181144-.05125-.31053-.153726-.38816-.102484-.07711-.237834-.11593-.406311-.11593h-.847819v.968848h.832809zm30.857385-20.3924365h-61.603281c-.66070793 0-1.19848914.537214-1.19848914 1.197864v20.9317225c0 .149313.12137378.270417.27070062.270417h63.45860052c.149328-.000001.270699-.12111.270699-.270418v-20.9317215c0-.66065-.53752-1.197864-1.19823-1.197864zm-61.6032863.540834h61.6032813c.362315 0 .656832.294743.656832.65703v14.5112805h-44.030446c-1.613858 2.917937-4.723046 4.898851-8.291339 4.898851-3.5698467 0-6.6782607-1.979362-8.2913393-4.898851h-2.30407163c0-6.0925775 0-14.5112805 0-14.5112805 0-.362282.29476866-.65703.65708263-.65703zm15.8528723 3.956926c1.612568 1.612412 2.41898 3.586871 2.41898 5.92255 0 2.3359655-.792462 4.2894405-2.377331 5.8604615-1.681922 1.654342-3.669728 2.481395-5.963456 2.481395-2.2660278 0-4.2194216-.820062-5.8596803-2.460952-1.6405133-1.640113-2.4606334-3.600578-2.4606334-5.8809045 0-2.280058.8201201-4.254244 2.4606334-5.92255 1.5985915-1.613203 3.5519895-2.419288 5.8596803-2.419288 2.335636-.000005 4.309239.806085 5.921807 2.419288zm-10.6958222 1.084524c-1.3633643 1.376937-2.0447644 2.990126-2.0447644 4.840103 0 1.8497215.6746775 3.4489495 2.023783 4.7979345 1.3493825 1.348981 2.9557282 2.023617 4.8195776 2.023617 1.863864 0 3.483946-.681099 4.861005-2.044314 1.307425-1.265673 1.961403-2.85764 1.961403-4.7772375 0-1.905094-.664597-3.521914-1.993003-4.850197-1.328123-1.328034-2.937837-1.992303-4.829405-1.992303-1.8915347 0-3.4914265.667627-4.7985962 2.002397zm3.5876978 4.026518c-.2083323-.454405-.5201851-.681354-.9360678-.681354-.7352358 0-1.1027329.495038-1.1027329 1.484335 0 .9898075.3674971 1.4845905 1.1027329 1.4845905.485495 0 .8322929-.240924 1.0403572-.7237905l1.019148.5426415c-.485763.863011-1.2145307 1.294642-2.1863073 1.294642-.7494806 0-1.3498918-.229784-1.8007239-.689103-.4515909-.459587-.6767408-1.093063-.6767408-1.9004495 0-.793396.2323904-1.423514.6974544-1.889818.4650497-.466572 1.0442524-.699719 1.7385975-.699719 1.0271665 0 1.7626701.404456 2.2072751 1.213123zm4.7947284 0c-.2086-.454405-.514226-.681354-.917163-.681354-.750018 0-1.125255.495038-1.125255 1.484335 0 .9898075.375237 1.4845905 1.125255 1.4845905.486272 0 .826856-.240924 1.021193-.7237905l1.04192.5426415c-.484971.863011-1.212707 1.294642-2.182679 1.294642-.748468 0-1.347578-.229784-1.798124-.689103-.449787-.459586-.675214-1.093063-.675214-1.9004495 0-.793396.228791-1.423514.686086-1.889818.457014-.466572 1.038789-.699719 1.74583-.699719 1.025348 0 1.759834.404456 2.202898 1.213123z" transform="translate(0 22)"/></svg>