<svg height="64" width="64" xmlns="http://www.w3.org/2000/svg"><g transform="matrix(.53001644 0 0 .52995713 -94.770211 -98.29855)"><path d="m473.88458 4.04068c3.48541 3.48483 5.22839 7.75281 5.22839 12.80161 0 5.04996-1.71283 9.27203-5.13837 12.66852-3.63531 3.57544-7.93176 5.36319-12.88943 5.36319-4.8978 0-9.11987-1.77209-12.66513-5.31958-3.54581-3.54526-5.31842-7.78299-5.31842-12.71213 0-4.92798 1.77261-9.19595 5.31842-12.80161 3.4552-3.48709 7.67728-5.23007 12.66513-5.23007 5.04825 0 9.314 1.74298 12.79941 5.23007zm-23.11798 2.34375c-2.94678 2.97693-4.41956 6.46402-4.41956 10.46234 0 3.99835 1.45825 7.45523 4.37421 10.37173 2.91656 2.91541 6.38852 4.37424 10.41705 4.37424 4.02856 0 7.53021-1.47223 10.50659-4.41898 2.82587-2.73642 4.23938-6.17761 4.23938-10.327 0-4.11804-1.43646-7.61295-4.30768-10.48474-2.87061-2.86954-6.34985-4.30597-10.43829-4.30597-4.08837.00001-7.54638 1.44316-10.3717 4.32838zm7.75446 8.7037c-.45029-.98224-1.12433-1.47226-2.02322-1.47226-1.58914 0-2.38345 1.06952-2.38345 3.20853s.79431 3.20853 2.38345 3.20853c1.04935 0 1.79892-.52133 2.24863-1.564l2.20279 1.17242c-1.04993 1.86493-2.62509 2.79907-4.72549 2.79907-1.61993 0-2.91766-.49673-3.89209-1.49014-.97607-.99344-1.46271-2.36276-1.46271-4.108 0-1.715.50229-3.07651 1.50748-4.08557 1.00516-1.008 2.25705-1.51141 3.75781-1.51141 2.22012 0 3.80984.87372 4.77081 2.62228zm10.36334 0c-.45087-.98224-1.11145-1.47226-1.98236-1.47226-1.62109 0-2.43213 1.06952-2.43213 3.20853s.81104 3.20853 2.43213 3.20853c1.05103 0 1.78717-.52133 2.20721-1.564l2.25201 1.17242c-1.04822 1.86493-2.62115 2.79907-4.71765 2.79907-1.61774 0-2.91266-.49673-3.88647-1.49014-.97217-.99344-1.45941-2.36276-1.45941-4.108 0-1.715.49451-3.07651 1.48291-4.08557.98779-1.008 2.24524-1.51141 3.77344-1.51141 2.21619 0 3.80371.87372 4.76135 2.62228z" transform="matrix(.872921 0 0 .872921 -202.6862664597 229.6905807413)"/><path d="m245.68994 236.87988c0-.41699-.33789-.75391-.75391-.75391h-4.77246c-.41602 0-.75391.33691-.75391.75391v4.77246h1.33105v5.65234h3.61719v-5.65234h1.33203v-4.77246z"/><circle cx="242.5498" cy="233.86523" r="1.63232"/><path clip-rule="evenodd" d="m242.53467 228.10059c-3.23145 0-5.96826 1.12695-8.20752 3.38379-2.29785 2.33301-3.44629 5.0957-3.44629 8.28418s1.14844 5.93164 3.44629 8.22656 5.03418 3.44238 8.20752 3.44238c3.21289 0 5.99805-1.15723 8.35352-3.47168 2.2207-2.19727 3.33008-4.92969 3.33008-8.19727s-1.12891-6.02832-3.3877-8.28418c-2.25879-2.25683-5.02442-3.38378-8.2959-3.38378zm.0293 2.09961c2.64844 0 4.89746.93359 6.74707 2.80078 1.87012 1.84668 2.80469 4.10352 2.80469 6.76758 0 2.68359-.91504 4.91113-2.74609 6.68066-1.92773 1.90527-4.19629 2.8584-6.80566 2.8584s-4.8584-.94336-6.74658-2.8291c-1.88965-1.88672-2.8335-4.12305-2.8335-6.70996s.9541-4.84277 2.8623-6.76758c1.83057-1.86719 4.07031-2.80078 6.71777-2.80078z" fill-rule="evenodd"/><path d="m2.25 0c-1.2388273 0-2.25 1.0117982-2.25 2.25v39.25c0 .280443.2200122.5.5.5h119c.27999 0 .5-.219567.5-.5v-39.25c0-1.2382018-1.01117-2.25-2.25-2.25zm0 1h115.5c.67934 0 1.25.5707275 1.25 1.25v27.1875h-82.5625c-3.025983 5.471006-8.87195 9.1875-15.5625 9.1875-6.693462 0-12.5067278-3.713583-15.53125-9.1875h-4.34375v-27.1875c0-.6792725.5706614-1.25 1.25-1.25zm54.625 31.75h3.125c.315893 0 .614908.0384.875.09375s.469916.12288.65625.25c.18536.126146.335598.290405.4375.5.101902.210569.15625.471702.15625.78125 0 .333813-.09766.620562-.25.84375-.151393.222214-.359288.420833-.65625.5625.409547.117412.704393.299733.90625.59375s.3125.64814.3125 1.0625c0 .333813-.05742.630458-.1875.875-.130046.244542-.311923.439463-.53125.59375-.220301.155261-.468561.27-.75.34375-.282413.07472-.577065.125-.875.125h-3.21875zm5.8125 0h1.625l1.5625 2.625 1.53125-2.625h1.625l-2.4375 4.0625v2.5625h-1.46875v-2.59375zm21.78125 0h1.46875l2.75 4.4375h.03125v-4.4375h1.375v6.625h-1.46875l-2.75-4.4375h-.03125v4.4375h-1.375zm6.875 0h2.875c.427982 0 .818718.05168 1.1875.1875.368782.136828.698958.353291.96875.625.268828.271709.473597.623686.625 1.03125.152366.408527.21875.887285.21875 1.4375 0 .482278-.06425.904936-.1875 1.3125-.124223.408527-.312117.765562-.5625 1.0625-.251357.295964-.562884.548932-.9375.71875-.374606.170792-.803962.25-1.3125.25h-2.875zm-33 1.125v1.5625h1.46875c.259605 0 .457588-.06327.625-.1875.166925-.123235.25-.347478.25-.625 0-.154287-.0071-.276021-.0625-.375-.05625-.09897-.125583-.163442-.21875-.21875-.09272-.05624-.222916-.102652-.34375-.125-.120824-.02136-.244954-.03125-.375-.03125zm34.46875.09375v4.1875h1.3125c.210592 0 .395769-.05709.59375-.125.197981-.06797.376936-.155301.53125-.3125.154304-.158172.281833-.371724.375-.625.09222-.253267.15625-.572634.15625-.9375 0-.333813-.05991-.637452-.125-.90625-.06499-.268798-.164009-.496328-.3125-.6875s-.34919-.334635-.59375-.4375c-.24456-.100917-.548131-.15625-.90625-.15625zm-34.46875 2.4375v1.84375h1.5625c.142657 0 .275717-.03438.40625-.0625.129559-.02812.244759-.05996.34375-.125.09898-.06499.15955-.170635.21875-.28125.05923-.111589.09375-.232547.09375-.40625 0-.339636-.08911-.605411-.28125-.75-.192157-.145553-.434107-.21875-.75-.21875z" transform="matrix(1.0062581 0 0 1.0063707 178.80617 224.73243)"/><g transform="matrix(.624995 0 0 .624995 -197.9806427395 261.9826021051)"><path d="m750.57263-54.14914c-5.17346 0-9.55005 1.8031-13.13287 5.41254-3.67657 3.73441-5.5141 8.15317-5.5141 13.2579 0 5.10318 1.83752 9.48914 5.5141 13.1626 3.67657 3.67191 8.05316 5.50787 13.13287 5.50787 5.13916 0 9.59546-1.85315 13.36572-5.55475 3.55164-3.51721 5.32825-7.88913 5.32825-13.11572 0-5.22974-1.80786-9.64694-5.422-13.2579-3.61401-3.60944-8.03906-5.41254-13.27197-5.41254zm.0469 3.35785c4.23596 0 7.83447 1.4953 10.79541 4.48438 2.99066 2.95471 4.48596 6.56256 4.48596 10.82822 0 4.29379-1.46405 7.85632-4.3938 10.68759-3.08435 3.05002-6.71411 4.57346-10.88757 4.57346-4.17657 0-7.77502-1.50781-10.79694-4.52814-3.02191-3.01721-4.53284-6.59537-4.53284-10.73291 0-4.14066 1.52655-7.7485 4.57971-10.82822 2.92975-2.98908 6.51252-4.48438 10.75007-4.48438z"/><path d="m757.65088-39.90375h-13.57361v3.21411h13.57361zm0 6.00006h-13.57361v3.21408h13.57361z"/></g></g></svg>