<svg height="64" width="64" xmlns="http://www.w3.org/2000/svg"><g transform="matrix(.53001638 0 0 .52995702 -94.770183 -18.899418)"><path d="m473.88455-167.54724c3.48541 3.48596 5.22839 7.75391 5.22839 12.80273 0 5.04938-1.7128 9.27148-5.13834 12.66736-3.63531 3.5766-7.93179 5.36432-12.88947 5.36432-4.89777 0-9.11987-1.77261-12.6651-5.31955-3.54584-3.54581-5.31845-7.78299-5.31845-12.71213 0-4.92859 1.77261-9.19598 5.31845-12.80273 3.4552-3.48651 7.67725-5.22894 12.6651-5.22894 5.04829 0 9.31401 1.74243 12.79942 5.22894zm-23.11798 2.34485c-2.94675 2.97638-4.41956 6.46289-4.41956 10.46234 0 3.99835 1.45828 7.4552 4.37424 10.37067 2.91653 2.9165 6.38849 4.37476 10.41705 4.37476 4.02853 0 7.53018-1.47281 10.50656-4.41901 2.8259-2.73584 4.23941-6.17706 4.23941-10.32642 0-4.11804-1.43646-7.61292-4.30768-10.48474-2.87064-2.87067-6.34988-4.30652-10.43829-4.30652-4.08837 0-7.54638 1.44318-10.37173 4.32892zm7.75449 8.70312c-.45032-.98163-1.12433-1.47223-2.02325-1.47223-1.58914 0-2.38342 1.06952-2.38342 3.2085 0 2.13959.79428 3.20911 2.38342 3.20911 1.04938 0 1.79895-.5213 2.24866-1.56512l2.20276 1.17303c-1.04993 1.86548-2.62506 2.79901-4.72549 2.79901-1.6199 0-2.91763-.4967-3.89206-1.48956-.97607-.99341-1.46274-2.36273-1.46274-4.10797 0-1.71558.50229-3.07709 1.50748-4.08563 1.00519-1.00793 2.25705-1.51251 3.75781-1.51251 2.22012 0 3.80984.87488 4.77081 2.62286zm10.36334 0c-.45087-.98163-1.11148-1.47223-1.98239-1.47223-1.62106 0-2.43213 1.06952-2.43213 3.2085 0 2.13959.81107 3.20911 2.43213 3.20911 1.05103 0 1.78717-.5213 2.20724-1.56512l2.25201 1.17303c-1.04825 1.86548-2.62119 2.79901-4.71768 2.79901-1.61771 0-2.91263-.4967-3.88647-1.48956-.97217-.99341-1.45938-2.36273-1.45938-4.10797 0-1.71558.49448-3.07709 1.48288-4.08563.98782-1.00793 2.24527-1.51251 3.77347-1.51251 2.21619 0 3.80368.87488 4.76132 2.62286z" transform="matrix(.872921 0 0 .872921 -202.6862664597 229.6905807413)"/><path d="m2.25 0c-1.2388271 0-2.25 1.0113116-2.25 2.25v39.25c0 .279956.22002216.5.5.5h119c.27999 0 .5-.220044.5-.5v-39.25c0-1.2386983-1.01117-2.25-2.25-2.25zm0 1h115.5c.67934 0 1.25.5707276 1.25 1.25v27.25h-82.5625c-3.025983 5.470518-8.871951 9.1875-15.5625 9.1875-6.693461 0-12.5067281-3.713584-15.53125-9.1875h-4.34375v-27.25c-.00001988-.6792724.5706615-1.25 1.25-1.25zm85.1875 31.59375c.346462 0 .681682.01615 1 .09375.317354.07711.597243.201784.84375.375.247471.173216.448181.418216.59375.6875.144605.269284.21875.585452.21875.96875h-1.4375c-.01262-.197959-.05514-.370455-.125-.5-.07086-.130032-.164799-.237786-.28125-.3125-.117425-.07373-.255821-.125685-.40625-.15625-.151393-.031-.290178-.03125-.46875-.03125-.116461 0-.258539.007-.375.03125-.117425.02524-.217395.06333-.3125.125-.0961.0621-.157613.15733-.21875.25-.06112.09311-.09375.201586-.09375.34375 0 .130032.01301.23245.0625.3125.04949.08059.167895.150823.3125.21875.144605.06797.337543.150823.59375.21875.256207.06797.585603.145198 1 .25.123249.02474.280673.05997.5.125.219327.06499.439824.170336.65625.3125.216416.142641.40431.356005.5625.59375.157216.238232.25.535085.25.90625 0 .303248-.0701.584174-.1875.84375-.117425.260063-.299312.467989-.53125.65625-.231948.189224-.501164.332211-.84375.4375-.34355.105289-.737188.1875-1.1875.1875-.364906 0-.71894-.06648-1.0625-.15625-.342586-.08973-.643246-.214114-.90625-.40625-.26203-.192136-.500972-.453062-.65625-.75-.154304-.297425-.224574-.653973-.21875-1.0625h1.4375c-.00003.222701.01319.408213.09375.5625.0796.154774.210792.278932.34375.375.132958.09559.290178.172654.46875.21875.179536.0466.340066.09375.53125.09375.129072 0 .289009-.04064.4375-.0625.147517-.02136.276204-.06341.40625-.125.129072-.06161.227094-.141799.3125-.25.08735-.108201.15625-.238856.15625-.40625 0-.179039-.07297-.325901-.1875-.4375-.113549-.111589-.25213-.206536-.4375-.28125-.184396-.07373-.391114-.131705-.625-.1875-.23486-.05584-.478076-.119086-.71875-.1875-.247471-.061608-.48389-.128982-.71875-.21875-.233886-.089232-.47089-.201586-.65625-.34375s-.322977-.31777-.4375-.53125c-.113549-.21348-.15625-.478489-.15625-.78125 0-.3406.07411-.655895.21875-.90625.145569-.250355.32764-.457606.5625-.625.233886-.166907.484279-.263203.78125-.34375.295998-.08009.610252-.125.90625-.125zm-30.5625.15625h3.125c.315406 0 .614908.0384.875.09375.260092.05575.469916.123367.65625.25.18536.126633.335598.321168.4375.53125s.15625.440939.15625.75c0 .333813-.09766.621039-.25.84375-.151393.222701-.359288.420346-.65625.5625.409547.117412.704393.299733.90625.59375s.3125.64814.3125 1.0625c0 .333813-.05742.630458-.1875.875-.130046.244055-.311923.438976-.53125.59375-.220301.154774-.468561.27001-.75.34375-.282413.07472-.577065.125-.875.125h-3.21875zm5.8125 0h1.625l1.5625 2.625 1.53125-2.625h1.625l-2.4375 4.0625v2.5625h-1.46875v-2.59375zm30.28125 0h1.5l2.46875 6.625h-1.5l-.5-1.46875h-2.46875l-.53125 1.46875h-1.46875zm-34.625 1.125v1.5625h1.46875c.260092 0 .457101-.06424.625-.1875.166925-.123722.25-.347468.25-.625 0-.154287-.0071-.276498-.0625-.375-.05625-.09897-.125583-.162955-.21875-.21875-.09312-.05535-.223403-.103626-.34375-.125-.121311-.02186-.244954-.03125-.375-.03125zm35.34375.5-.84375 2.4375h1.71875l-.84375-2.4375zm-35.34375 2.03125v1.84375h1.5625c.142657 0 .276204-.03438.40625-.0625.130046-.02762.24476-.06046.34375-.125.09898-.06499.15955-.170148.21875-.28125.05923-.111102.09375-.233034.09375-.40625 0-.339636-.08911-.604934-.28125-.75-.192157-.145066-.434594-.21875-.75-.21875z" transform="matrix(1.0062582 0 0 1.0063709 178.80614 74.910638)"/><g transform="matrix(.624995 0 0 .624995 376.2594572605 120.8526361481)"><path d="m-168.2204-68.05536c-5.17194 0-9.54852 1.80469-13.13135 5.41333-3.67661 3.73444-5.51413 8.1532-5.51413 13.25635s1.83752 9.49152 5.51413 13.1626c3.67502 3.67194 8.05316 5.50787 13.13135 5.50787 5.14066 0 9.59537-1.85156 13.36728-5.55475 3.55005-3.51562 5.3266-7.88831 5.3266-13.11572 0-5.22662-1.8078-9.64697-5.42191-13.25635-3.61407-3.60864-8.03756-5.41333-13.27197-5.41333zm.0469 3.36017c4.23752 0 7.836 1.49298 10.79697 4.48053 2.98907 2.9563 4.48441 6.56567 4.48441 10.82898 0 4.29382-1.46252 7.85712-4.39224 10.68915-3.08438 3.04926-6.71411 4.57349-10.88913 4.57349-4.17505 0-7.7735-1.5094-10.79541-4.52661-3.02188-3.01953-4.53284-6.59692-4.53284-10.73602 0-4.13831 1.52658-7.74847 4.57971-10.82898 2.92815-2.98756 6.51098-4.48054 10.74853-4.48054z"/><path d="m-176.49548-52.02087c.74377-4.69769 4.05161-7.20862 8.1954-7.20862 5.96097 0 9.59225 4.32501 9.59225 10.09229 0 5.62738-3.86411 9.99927-9.686 9.99927-4.00473 0-7.58914-2.46484-8.24228-7.30084h4.70319c.14062 2.51099 1.77032 3.39459 4.09845 3.39459 2.65317 0 4.37817-2.4649 4.37817-6.23291 0-3.95233-1.49063-6.04535-4.28598-6.04535-2.04846 0-3.8172.74457-4.19064 3.30157l1.36874-.007-3.70316 3.7016-3.7016-3.7016z"/></g><path d="m245.68994 87.09766c0-.4165-.33789-.75342-.75391-.75342h-4.77246c-.41602 0-.75391.33691-.75391.75342v4.77295h1.33105v5.65234h3.61719v-5.65234h1.33203v-4.77295z"/><circle cx="242.5498" cy="84.083008" r="1.63232"/><path clip-rule="evenodd" d="m242.53467 78.31836c-3.23145 0-5.96826 1.12744-8.20752 3.38379-2.29785 2.33301-3.44629 5.09521-3.44629 8.28418s1.14844 5.93213 3.44629 8.22705c2.29785 2.29443 5.03418 3.44189 8.20752 3.44189 3.21289 0 5.99805-1.15674 8.35352-3.47168 2.2207-2.19678 3.33008-4.92969 3.33008-8.19727s-1.12891-6.02881-3.3877-8.28418c-2.25879-2.25634-5.02442-3.38378-8.2959-3.38378zm.0293 2.09961c2.64844 0 4.89746.93359 6.74707 2.80078 1.87012 1.84717 2.80469 4.10352 2.80469 6.76758 0 2.68359-.91504 4.91113-2.74609 6.68066-1.92773 1.90576-4.19629 2.8584-6.80566 2.8584s-4.8584-.94287-6.74658-2.82959c-1.88965-1.88623-2.8335-4.12256-2.8335-6.70947 0-2.58643.9541-4.84229 2.8623-6.76758 1.83057-1.86719 4.07031-2.80078 6.71777-2.80078z" fill-rule="evenodd"/></g></svg>