<?xml version="1.0" encoding="UTF-8"?>
<svg xmlns="http://www.w3.org/2000/svg" xmlns:xlink="http://www.w3.org/1999/xlink" width="64px" height="31px" viewBox="0 0 88 31" version="1.1">
<g id="surface1">
<path style=" stroke:none;fill-rule:nonzero;fill:rgb(100%,100%,100%);fill-opacity:1;" d="M 2.304688 0.582031 L 85.429688 0.730469 C 86.589844 0.730469 87.628906 0.558594 87.628906 3.066406 L 87.523438 30.621094 L 0.203125 30.621094 L 0.203125 2.964844 C 0.203125 1.726562 0.324219 0.582031 2.304688 0.582031 Z M 2.304688 0.582031 "/>
<path style=" stroke:none;fill-rule:nonzero;fill:rgb(100%,100%,100%);fill-opacity:1;" d="M 25.488281 15.601562 C 25.488281 9.433594 20.519531 4.429688 14.386719 4.429688 C 8.257812 4.429688 3.285156 9.433594 3.285156 15.601562 C 3.285156 21.773438 8.257812 26.777344 14.386719 26.777344 C 20.519531 26.777344 25.488281 21.773438 25.488281 15.601562 Z M 25.488281 15.601562 "/>
<path style=" stroke:none;fill-rule:nonzero;fill:rgb(0%,0%,0%);fill-opacity:1;" d="M 23.769531 4.160156 C 27.253906 6.753906 29.523438 10.90625 29.527344 15.601562 C 29.523438 19.875 27.644531 23.695312 24.683594 26.308594 L 87.535156 26.308594 L 87.535156 4.160156 Z M 23.769531 4.160156 "/>
<path style=" stroke:none;fill-rule:nonzero;fill:rgb(100%,100%,100%);fill-opacity:1;" d="M 36.238281 7.660156 C 36.632812 7.660156 36.96875 7.71875 37.242188 7.832031 C 37.515625 7.949219 37.742188 8.101562 37.914062 8.289062 C 38.089844 8.476562 38.214844 8.695312 38.292969 8.9375 C 38.371094 9.179688 38.410156 9.429688 38.410156 9.6875 C 38.410156 9.941406 38.371094 10.191406 38.292969 10.4375 C 38.214844 10.683594 38.089844 10.898438 37.914062 11.089844 C 37.742188 11.277344 37.519531 11.429688 37.242188 11.542969 C 36.96875 11.65625 36.632812 11.71875 36.238281 11.71875 L 34.785156 11.71875 L 34.785156 13.984375 L 33.40625 13.984375 L 33.40625 7.660156 Z M 35.859375 10.636719 C 36.019531 10.636719 36.171875 10.625 36.316406 10.601562 C 36.464844 10.578125 36.59375 10.53125 36.703125 10.464844 C 36.816406 10.394531 36.90625 10.300781 36.972656 10.175781 C 37.042969 10.050781 37.074219 9.890625 37.074219 9.6875 C 37.074219 9.488281 37.042969 9.328125 36.972656 9.203125 C 36.90625 9.078125 36.816406 8.980469 36.703125 8.914062 C 36.59375 8.847656 36.464844 8.800781 36.316406 8.777344 C 36.171875 8.753906 36.019531 8.742188 35.859375 8.742188 L 34.785156 8.742188 L 34.785156 10.636719 Z M 35.859375 10.636719 "/>
<path style=" stroke:none;fill-rule:nonzero;fill:rgb(100%,100%,100%);fill-opacity:1;" d="M 44.25 13.5 C 43.773438 13.917969 43.117188 14.125 42.277344 14.125 C 41.429688 14.125 40.769531 13.917969 40.304688 13.507812 C 39.835938 13.09375 39.605469 12.453125 39.605469 11.59375 L 39.605469 7.660156 L 40.984375 7.660156 L 40.984375 11.59375 C 40.984375 11.765625 41 11.933594 41.03125 12.097656 C 41.058594 12.265625 41.121094 12.410156 41.214844 12.539062 C 41.308594 12.664062 41.441406 12.765625 41.605469 12.847656 C 41.773438 12.929688 42 12.96875 42.28125 12.96875 C 42.773438 12.96875 43.113281 12.855469 43.300781 12.636719 C 43.488281 12.414062 43.582031 12.066406 43.582031 11.59375 L 43.582031 7.660156 L 44.964844 7.660156 L 44.964844 11.59375 C 44.964844 12.449219 44.726562 13.085938 44.25 13.5 Z M 44.25 13.5 "/>
<path style=" stroke:none;fill-rule:nonzero;fill:rgb(100%,100%,100%);fill-opacity:1;" d="M 49.570312 7.660156 C 49.871094 7.660156 50.140625 7.6875 50.386719 7.742188 C 50.632812 7.796875 50.84375 7.882812 51.019531 8.003906 C 51.199219 8.121094 51.332031 8.285156 51.429688 8.484375 C 51.527344 8.683594 51.578125 8.933594 51.578125 9.230469 C 51.578125 9.546875 51.503906 9.8125 51.359375 10.023438 C 51.214844 10.238281 51.003906 10.414062 50.722656 10.546875 C 51.109375 10.660156 51.398438 10.859375 51.585938 11.136719 C 51.777344 11.417969 51.871094 11.757812 51.871094 12.152344 C 51.871094 12.472656 51.8125 12.746094 51.6875 12.980469 C 51.5625 13.210938 51.398438 13.402344 51.191406 13.550781 C 50.980469 13.699219 50.746094 13.808594 50.476562 13.878906 C 50.207031 13.949219 49.9375 13.984375 49.65625 13.984375 L 46.609375 13.984375 L 46.609375 7.660156 Z M 49.394531 10.21875 C 49.640625 10.21875 49.84375 10.160156 50.003906 10.042969 C 50.160156 9.925781 50.238281 9.734375 50.238281 9.464844 C 50.238281 9.320312 50.214844 9.195312 50.160156 9.101562 C 50.105469 9.011719 50.035156 8.933594 49.949219 8.882812 C 49.859375 8.828125 49.761719 8.789062 49.644531 8.773438 C 49.527344 8.75 49.410156 8.742188 49.289062 8.742188 L 47.996094 8.742188 L 47.996094 10.222656 Z M 49.476562 12.90625 C 49.609375 12.90625 49.738281 12.890625 49.863281 12.863281 C 49.984375 12.839844 50.09375 12.792969 50.1875 12.730469 C 50.28125 12.671875 50.355469 12.585938 50.414062 12.476562 C 50.46875 12.375 50.496094 12.238281 50.496094 12.070312 C 50.496094 11.746094 50.40625 11.515625 50.226562 11.378906 C 50.042969 11.238281 49.800781 11.167969 49.503906 11.167969 L 47.996094 11.167969 L 47.996094 12.90625 Z M 49.476562 12.90625 "/>
<path style=" stroke:none;fill-rule:nonzero;fill:rgb(100%,100%,100%);fill-opacity:1;" d="M 54.644531 7.660156 L 54.644531 12.816406 L 57.703125 12.816406 L 57.703125 13.984375 L 53.261719 13.984375 L 53.261719 7.660156 Z M 54.644531 7.660156 "/>
<path style=" stroke:none;fill-rule:nonzero;fill:rgb(100%,100%,100%);fill-opacity:1;" d="M 60.246094 7.660156 L 60.246094 13.984375 L 58.867188 13.984375 L 58.867188 7.660156 Z M 60.246094 7.660156 "/>
<path style=" stroke:none;fill-rule:nonzero;fill:rgb(100%,100%,100%);fill-opacity:1;" d="M 65.949219 9.347656 C 65.867188 9.214844 65.765625 9.097656 65.640625 9 C 65.519531 8.898438 65.378906 8.820312 65.222656 8.761719 C 65.066406 8.707031 64.90625 8.679688 64.734375 8.679688 C 64.425781 8.679688 64.160156 8.742188 63.941406 8.863281 C 63.726562 8.980469 63.550781 9.144531 63.417969 9.347656 C 63.28125 9.550781 63.1875 9.785156 63.121094 10.042969 C 63.058594 10.300781 63.027344 10.570312 63.027344 10.847656 C 63.027344 11.117188 63.058594 11.371094 63.121094 11.625 C 63.183594 11.875 63.28125 12.101562 63.417969 12.304688 C 63.550781 12.503906 63.730469 12.664062 63.941406 12.785156 C 64.160156 12.90625 64.425781 12.96875 64.734375 12.96875 C 65.160156 12.96875 65.488281 12.835938 65.726562 12.578125 C 65.960938 12.316406 66.109375 11.976562 66.164062 11.550781 L 67.5 11.550781 C 67.464844 11.945312 67.375 12.304688 67.230469 12.621094 C 67.082031 12.941406 66.886719 13.214844 66.648438 13.4375 C 66.410156 13.660156 66.125 13.832031 65.800781 13.949219 C 65.480469 14.070312 65.125 14.128906 64.738281 14.128906 C 64.257812 14.128906 63.824219 14.042969 63.441406 13.875 C 63.054688 13.707031 62.730469 13.476562 62.46875 13.179688 C 62.203125 12.886719 62 12.539062 61.859375 12.140625 C 61.71875 11.742188 61.648438 11.3125 61.648438 10.851562 C 61.648438 10.378906 61.71875 9.941406 61.859375 9.535156 C 62 9.132812 62.203125 8.777344 62.46875 8.476562 C 62.730469 8.175781 63.054688 7.941406 63.441406 7.769531 C 63.824219 7.597656 64.253906 7.511719 64.738281 7.511719 C 65.085938 7.511719 65.414062 7.5625 65.71875 7.660156 C 66.027344 7.761719 66.300781 7.910156 66.546875 8.101562 C 66.789062 8.292969 66.988281 8.53125 67.148438 8.8125 C 67.308594 9.097656 67.40625 9.421875 67.449219 9.789062 L 66.109375 9.789062 C 66.085938 9.625 66.03125 9.476562 65.949219 9.347656 Z M 65.949219 9.347656 "/>
<path style=" stroke:none;fill-rule:nonzero;fill:rgb(100%,100%,100%);fill-opacity:1;" d="M 36.113281 16.519531 C 36.519531 16.519531 36.898438 16.582031 37.246094 16.710938 C 37.597656 16.839844 37.898438 17.035156 38.152344 17.296875 C 38.40625 17.554688 38.605469 17.882812 38.75 18.269531 C 38.894531 18.660156 38.96875 19.121094 38.96875 19.640625 C 38.96875 20.105469 38.90625 20.53125 38.789062 20.917969 C 38.671875 21.308594 38.496094 21.644531 38.257812 21.929688 C 38.019531 22.210938 37.726562 22.433594 37.367188 22.597656 C 37.015625 22.757812 36.597656 22.839844 36.113281 22.839844 L 33.40625 22.839844 L 33.40625 16.519531 Z M 36.019531 21.671875 C 36.21875 21.671875 36.410156 21.640625 36.601562 21.574219 C 36.789062 21.511719 36.953125 21.402344 37.101562 21.253906 C 37.246094 21.101562 37.367188 20.90625 37.453125 20.660156 C 37.542969 20.421875 37.585938 20.125 37.585938 19.777344 C 37.585938 19.460938 37.554688 19.171875 37.492188 18.914062 C 37.429688 18.65625 37.332031 18.433594 37.1875 18.253906 C 37.046875 18.070312 36.863281 17.929688 36.628906 17.832031 C 36.398438 17.734375 36.113281 17.6875 35.773438 17.6875 L 34.789062 17.6875 L 34.789062 21.671875 Z M 36.019531 21.671875 "/>
<path style=" stroke:none;fill-rule:nonzero;fill:rgb(100%,100%,100%);fill-opacity:1;" d="M 40.300781 18.390625 C 40.441406 17.988281 40.644531 17.632812 40.90625 17.332031 C 41.171875 17.027344 41.496094 16.792969 41.878906 16.621094 C 42.265625 16.449219 42.695312 16.363281 43.175781 16.363281 C 43.664062 16.363281 44.097656 16.449219 44.480469 16.621094 C 44.859375 16.792969 45.183594 17.027344 45.449219 17.332031 C 45.714844 17.632812 45.914062 17.984375 46.054688 18.390625 C 46.195312 18.792969 46.265625 19.234375 46.265625 19.707031 C 46.265625 20.164062 46.195312 20.597656 46.054688 20.992188 C 45.910156 21.390625 45.710938 21.738281 45.449219 22.035156 C 45.183594 22.328125 44.859375 22.558594 44.480469 22.730469 C 44.097656 22.894531 43.664062 22.980469 43.175781 22.980469 C 42.695312 22.980469 42.265625 22.894531 41.878906 22.730469 C 41.496094 22.558594 41.171875 22.328125 40.90625 22.035156 C 40.644531 21.738281 40.441406 21.390625 40.300781 20.992188 C 40.160156 20.597656 40.089844 20.164062 40.089844 19.707031 C 40.089844 19.234375 40.160156 18.796875 40.300781 18.390625 Z M 41.5625 20.480469 C 41.625 20.730469 41.722656 20.960938 41.855469 21.160156 C 41.992188 21.359375 42.167969 21.519531 42.382812 21.640625 C 42.601562 21.761719 42.863281 21.824219 43.175781 21.824219 C 43.488281 21.824219 43.753906 21.761719 43.96875 21.640625 C 44.1875 21.519531 44.363281 21.359375 44.496094 21.160156 C 44.632812 20.960938 44.726562 20.730469 44.792969 20.480469 C 44.855469 20.230469 44.882812 19.972656 44.882812 19.707031 C 44.882812 19.429688 44.855469 19.160156 44.792969 18.898438 C 44.730469 18.636719 44.632812 18.40625 44.496094 18.203125 C 44.359375 18.003906 44.183594 17.839844 43.96875 17.71875 C 43.753906 17.597656 43.488281 17.535156 43.175781 17.535156 C 42.863281 17.535156 42.601562 17.597656 42.382812 17.71875 C 42.167969 17.839844 41.992188 18.003906 41.855469 18.203125 C 41.722656 18.40625 41.625 18.640625 41.5625 18.898438 C 41.5 19.160156 41.46875 19.425781 41.46875 19.707031 C 41.46875 19.972656 41.5 20.230469 41.5625 20.480469 Z M 41.5625 20.480469 "/>
<path style=" stroke:none;fill-rule:nonzero;fill:rgb(100%,100%,100%);fill-opacity:1;" d="M 49.59375 16.519531 L 51.0625 20.867188 L 51.082031 20.867188 L 52.476562 16.519531 L 54.417969 16.519531 L 54.417969 22.839844 L 53.125 22.839844 L 53.125 18.359375 L 53.105469 18.359375 L 51.566406 22.839844 L 50.5 22.839844 L 48.960938 18.402344 L 48.941406 18.402344 L 48.941406 22.839844 L 47.648438 22.839844 L 47.648438 16.519531 Z M 49.59375 16.519531 "/>
<path style=" stroke:none;fill-rule:nonzero;fill:rgb(100%,100%,100%);fill-opacity:1;" d="M 59.265625 16.519531 L 61.613281 22.839844 L 60.179688 22.839844 L 59.703125 21.433594 L 57.351562 21.433594 L 56.859375 22.839844 L 55.46875 22.839844 L 57.847656 16.519531 Z M 59.34375 20.398438 L 58.550781 18.074219 L 58.53125 18.074219 L 57.714844 20.398438 Z M 59.34375 20.398438 "/>
<path style=" stroke:none;fill-rule:nonzero;fill:rgb(100%,100%,100%);fill-opacity:1;" d="M 64.046875 16.519531 L 64.046875 22.839844 L 62.664062 22.839844 L 62.664062 16.519531 Z M 64.046875 16.519531 "/>
<path style=" stroke:none;fill-rule:nonzero;fill:rgb(100%,100%,100%);fill-opacity:1;" d="M 67.105469 16.519531 L 69.726562 20.761719 L 69.746094 20.761719 L 69.746094 16.519531 L 71.039062 16.519531 L 71.039062 22.839844 L 69.65625 22.839844 L 67.042969 18.605469 L 67.023438 18.605469 L 67.023438 22.839844 L 65.730469 22.839844 L 65.730469 16.519531 Z M 67.105469 16.519531 "/>
<path style=" stroke:none;fill-rule:nonzero;fill:rgb(0%,0%,0%);fill-opacity:1;" d="M 86.351562 0.101562 L 1.648438 0.101562 C 0.738281 0.101562 0 0.84375 0 1.757812 L 0 30.726562 C 0 30.933594 0.167969 31.101562 0.371094 31.101562 L 87.628906 31.101562 C 87.832031 31.101562 88 30.933594 88 30.726562 L 88 1.757812 C 88 0.84375 87.261719 0.101562 86.351562 0.101562 Z M 1.648438 0.851562 L 86.351562 0.851562 C 86.851562 0.851562 87.253906 1.257812 87.253906 1.757812 C 87.253906 1.757812 87.253906 21.878906 87.253906 30.316406 L 0.746094 30.316406 L 0.746094 21.890625 C 0.746094 13.453125 0.746094 1.757812 0.746094 1.757812 C 0.746094 1.257812 1.148438 0.851562 1.648438 0.851562 Z M 1.648438 0.851562 "/>
<path style=" stroke:none;fill-rule:nonzero;fill:rgb(100%,100%,100%);fill-opacity:1;" d="M 25.660156 15.761719 C 25.660156 9.644531 20.734375 4.6875 14.65625 4.6875 C 8.578125 4.6875 3.652344 9.644531 3.652344 15.761719 C 3.652344 21.878906 8.578125 26.839844 14.65625 26.839844 C 20.734375 26.839844 25.660156 21.878906 25.660156 15.761719 Z M 25.660156 15.761719 "/>
<path style=" stroke:none;fill-rule:nonzero;fill:rgb(0%,0%,0%);fill-opacity:1;" d="M 14.71875 8.847656 C 10.859375 8.847656 9.886719 12.515625 9.886719 15.625 C 9.886719 18.738281 10.855469 22.40625 14.71875 22.40625 C 18.582031 22.40625 19.554688 18.734375 19.554688 15.625 C 19.554688 12.515625 18.582031 8.847656 14.71875 8.847656 Z M 14.71875 11.402344 C 14.878906 11.402344 15.019531 11.425781 15.15625 11.460938 C 15.433594 11.703125 15.570312 12.035156 15.300781 12.5 L 12.730469 17.261719 C 12.652344 16.65625 12.640625 16.066406 12.640625 15.625 C 12.640625 14.257812 12.734375 11.402344 14.71875 11.402344 Z M 16.644531 13.59375 C 16.78125 14.324219 16.800781 15.089844 16.800781 15.625 C 16.800781 16.996094 16.707031 19.847656 14.722656 19.847656 C 14.566406 19.847656 14.421875 19.832031 14.285156 19.800781 C 14.261719 19.789062 14.238281 19.78125 14.210938 19.773438 C 14.171875 19.761719 14.128906 19.75 14.089844 19.734375 C 13.648438 19.546875 13.367188 19.203125 13.769531 18.59375 Z M 16.644531 13.59375 "/>
<path style=" stroke:none;fill-rule:nonzero;fill:rgb(0%,0%,0%);fill-opacity:1;" d="M 14.695312 3.847656 C 11.449219 3.847656 8.714844 4.984375 6.484375 7.269531 C 5.355469 8.40625 4.496094 9.703125 3.894531 11.148438 C 3.3125 12.578125 3.019531 14.066406 3.019531 15.625 C 3.019531 17.195312 3.3125 18.6875 3.894531 20.105469 C 4.480469 21.519531 5.328125 22.792969 6.445312 23.929688 C 7.570312 25.050781 8.839844 25.914062 10.246094 26.519531 C 11.667969 27.109375 13.148438 27.402344 14.695312 27.402344 C 16.242188 27.402344 17.746094 27.097656 19.195312 26.496094 C 20.640625 25.890625 21.933594 25.023438 23.078125 23.890625 C 24.179688 22.8125 25.011719 21.574219 25.566406 20.171875 C 26.136719 18.757812 26.421875 17.238281 26.421875 15.628906 C 26.421875 14.027344 26.140625 12.515625 25.566406 11.097656 C 24.996094 9.671875 24.160156 8.40625 23.0625 7.296875 C 20.761719 4.996094 17.96875 3.847656 14.695312 3.847656 Z M 14.742188 5.96875 C 17.390625 5.96875 19.648438 6.910156 21.527344 8.804688 C 22.433594 9.714844 23.128906 10.757812 23.601562 11.921875 C 24.074219 13.085938 24.3125 14.320312 24.3125 15.625 C 24.3125 18.332031 23.394531 20.578125 21.570312 22.371094 C 20.621094 23.300781 19.558594 24.011719 18.375 24.5 C 17.203125 24.988281 16 25.230469 14.742188 25.230469 C 13.476562 25.230469 12.261719 24.992188 11.105469 24.515625 C 9.949219 24.027344 8.914062 23.324219 7.992188 22.410156 C 7.074219 21.484375 6.363281 20.441406 5.863281 19.277344 C 5.375 18.097656 5.125 16.886719 5.125 15.621094 C 5.125 14.347656 5.375 13.125 5.863281 11.960938 C 6.363281 10.78125 7.074219 9.726562 7.992188 8.785156 C 9.816406 6.910156 12.070312 5.96875 14.742188 5.96875 Z M 14.742188 5.96875 "/>
</g>
</svg>
