<svg width="54" height="46" viewBox="0 0 54 46" fill="none" xmlns="http://www.w3.org/2000/svg">
<path d="M0.781323 0.173727C0.645535 0.275698 0.490349 0.460755 0.439913 0.585386C0.3662 0.759113 0.346802 1.92233 0.346802 5.84631C0.350681 9.1358 0.373959 10.8995 0.420515 10.9222C0.463191 10.9411 0.494228 11.0128 0.498108 11.0808C0.498108 11.145 0.579581 11.3036 0.676572 11.432C0.773563 11.5567 0.994703 11.7266 1.16153 11.8059C1.33223 11.889 1.67752 12.0023 1.93746 12.0589C2.19352 12.1156 2.55044 12.1911 2.73279 12.2289C2.91125 12.2667 3.20222 12.3271 3.38069 12.3611C3.55915 12.3951 3.88504 12.4593 4.1023 12.5046C4.31956 12.5461 4.62994 12.6103 4.789 12.6443C4.94419 12.6745 5.32051 12.7501 5.61537 12.8105C5.9141 12.8709 6.33698 12.954 6.55424 12.9956C6.7715 13.0371 7.11291 13.1164 7.31077 13.1693C7.51252 13.2222 7.76857 13.2864 7.88884 13.309C8.00911 13.3317 8.26905 13.3846 8.46691 13.4223C8.66477 13.4601 8.94023 13.5054 9.0799 13.5281C9.21956 13.547 9.39803 13.5923 9.47562 13.6225C9.55709 13.6565 9.73556 13.7018 9.87522 13.7245C10.011 13.7433 10.4339 13.8264 10.8102 13.9057C11.1865 13.9851 11.6754 14.0795 11.8926 14.121C12.1099 14.1588 12.3233 14.2117 12.3621 14.2381C12.4009 14.2645 12.5987 14.3136 12.7966 14.3438C12.9945 14.3778 13.2699 14.4194 13.4096 14.4383C13.5493 14.4609 13.7277 14.5025 13.8053 14.5365C13.8868 14.5704 14.0652 14.6158 14.201 14.6346C14.3407 14.6535 14.6006 14.6989 14.7791 14.7366C14.9576 14.7744 15.6055 14.9028 16.2223 15.0274C16.8392 15.1521 17.3746 15.2729 17.4134 15.2956C17.4522 15.322 17.6306 15.3635 17.8091 15.3938C17.9876 15.424 18.2979 15.4768 18.4958 15.5146C18.6937 15.5524 18.9536 15.6015 19.0739 15.6241C19.1903 15.6506 19.4192 15.7034 19.5782 15.7488C19.7373 15.7941 19.9778 15.9112 20.1175 16.0169C20.2572 16.1189 20.4744 16.3568 20.6063 16.5456C20.7615 16.7722 20.8546 17.0102 20.8779 17.2406C20.9012 17.4369 20.9245 23.5665 20.9361 30.8668C20.9477 42.3933 20.9671 44.1759 21.0564 44.3949C21.1146 44.5384 21.2698 44.799 21.3978 44.9765C21.5297 45.154 21.8051 45.4108 22.0108 45.5468C22.2203 45.6828 22.4414 45.7923 22.4996 45.7923C22.5578 45.7885 22.6742 45.8376 22.7518 45.8942C22.8759 45.9811 23.4812 45.9962 26.9534 46C29.2657 46 31.0659 45.9736 31.1396 45.9396C31.2094 45.9018 31.4422 45.7961 31.6633 45.6979C31.9 45.5959 32.191 45.3844 32.385 45.1805C32.5673 44.9841 32.769 44.6706 32.8505 44.4516C32.9941 44.0777 32.9979 43.8511 33.0329 30.5874L33.0678 17.1008C33.32 16.6099 33.4635 16.3908 33.5527 16.2888C33.6458 16.1906 33.8165 16.0471 33.9329 15.9716C34.0532 15.8923 34.2821 15.7941 34.4412 15.7525C34.5964 15.7072 34.8563 15.6392 35.0154 15.6015C35.1744 15.5599 35.4188 15.5071 35.5585 15.4844C35.6982 15.4617 35.9387 15.424 36.0978 15.4051C36.2568 15.3824 36.4198 15.3409 36.4586 15.3069C36.5013 15.2767 36.7263 15.2163 36.9629 15.1709C37.2035 15.1294 37.5294 15.0652 37.6846 15.035C37.8436 15.001 38.154 14.9368 38.3713 14.8952C38.5885 14.8537 38.9144 14.7857 39.0929 14.7442C39.2713 14.7026 39.5623 14.6422 39.7408 14.6044C39.9192 14.5704 40.2451 14.51 40.4624 14.4647C40.6835 14.4232 40.99 14.3741 41.1491 14.3514C41.3081 14.3287 41.4711 14.2872 41.5099 14.257C41.5487 14.223 41.7116 14.1777 41.8707 14.1512C42.0298 14.1248 42.4022 14.0568 42.7009 13.9964C42.9997 13.936 43.3721 13.8604 43.5312 13.8264C43.6903 13.7924 43.9812 13.732 44.1791 13.6905C44.377 13.6527 44.7028 13.5847 44.9007 13.547C45.0986 13.5092 45.3934 13.4601 45.5486 13.4374C45.7077 13.4186 45.8706 13.3732 45.9055 13.3355C45.9443 13.3015 46.0762 13.275 46.1965 13.2713C46.3168 13.2713 46.5612 13.2259 46.7397 13.1693C46.9181 13.1164 47.244 13.0371 47.4613 12.9956C47.6785 12.954 48.1014 12.8709 48.4002 12.8105C48.6989 12.7501 49.0946 12.6708 49.2847 12.6368C49.4709 12.599 49.7891 12.5386 49.9869 12.5008C50.1848 12.4631 50.5029 12.4026 50.6891 12.3649C50.8792 12.3271 51.1974 12.2667 51.3952 12.2289C51.5931 12.1911 51.9655 12.1005 52.2255 12.0325C52.4854 11.9608 52.8191 11.8172 52.9665 11.7115C53.1139 11.6057 53.2963 11.4169 53.3739 11.2885C53.4515 11.1639 53.5562 10.858 53.6028 10.6049C53.6648 10.265 53.6726 8.98851 53.6377 5.65369C53.6105 3.17997 53.5717 1.04992 53.5446 0.913957C53.5213 0.777997 53.4592 0.581609 53.4049 0.475862C53.3506 0.366338 53.207 0.219048 53.0906 0.139737C52.9355 0.0415435 52.7531 0 52.4583 0C52.2294 0 51.8181 0.0490969 51.5388 0.105747C51.2595 0.166174 50.856 0.249261 50.6348 0.290805C50.4176 0.332348 50.1033 0.392775 49.9326 0.426765C49.7658 0.464532 49.4709 0.524959 49.2847 0.566502C49.0946 0.604269 48.7959 0.660919 48.6174 0.691133C48.4389 0.71757 48.2605 0.76289 48.2178 0.789327C48.179 0.815763 47.954 0.872414 47.7135 0.917734C47.4768 0.959277 47.1509 1.02348 46.9918 1.05369C46.8328 1.08391 46.5108 1.14811 46.2702 1.19343C46.0336 1.23875 45.7077 1.30296 45.5486 1.33695C45.3934 1.37094 45.0986 1.43514 44.9007 1.47668C44.7028 1.51823 44.3925 1.58243 44.214 1.61642C44.0355 1.65041 43.729 1.70706 43.5312 1.73727C43.3333 1.77126 43.1355 1.81658 43.0967 1.84302C43.0579 1.86946 42.8484 1.92233 42.6272 1.96388C42.41 2.00164 41.9211 2.09984 41.5448 2.18292C41.1685 2.26223 40.7146 2.35665 40.5361 2.39064C40.3576 2.42463 40.0473 2.48506 39.8494 2.5266C39.6515 2.57192 39.345 2.63235 39.1666 2.67011C38.9881 2.7041 38.6933 2.76453 38.5148 2.8023C38.3363 2.84007 38.0609 2.90427 37.9018 2.94581C37.7428 2.99113 37.2074 3.10443 36.7108 3.20263C36.218 3.30082 35.6788 3.41034 35.5236 3.44433C35.3645 3.47832 35.0697 3.53875 34.8718 3.5803C34.674 3.61806 34.383 3.67094 34.2239 3.6936C34.0648 3.71626 33.8709 3.76158 33.7894 3.79179C33.7118 3.82578 33.5489 3.86732 33.4286 3.88621C33.3122 3.90131 32.8234 4.00328 32.3462 4.10525C31.8728 4.20722 31.3336 4.3243 31.1551 4.36207C30.9766 4.39984 30.6857 4.46404 30.5072 4.50181C30.3287 4.53957 30.0882 4.59245 29.9757 4.62266C29.8632 4.6491 29.7584 4.69442 29.7429 4.72463C29.7274 4.75107 29.6149 4.7775 29.4985 4.7775C29.3782 4.7775 29.2696 4.80016 29.2541 4.8266C29.2386 4.85681 29.0213 4.95501 28.7652 5.04565C28.5131 5.14007 28.1445 5.29491 27.9466 5.39688C27.7488 5.49507 27.4539 5.66502 27.2987 5.77077L27.0078 5.96338C26.5034 5.66502 26.0766 5.44598 25.7275 5.28358C25.3822 5.12118 25.0757 4.98522 25.0485 4.98522C25.0214 4.98522 24.8972 4.94368 24.777 4.8908C24.6567 4.83793 24.4084 4.75484 24.2299 4.70575C24.0515 4.65665 23.8264 4.59622 23.7256 4.56601C23.6247 4.5358 23.3764 4.47537 23.1669 4.43383C22.9574 4.38851 22.6354 4.32053 22.4453 4.28276C22.2552 4.24499 21.8439 4.1619 21.5258 4.10148C21.2077 4.04105 20.9167 3.97307 20.874 3.95419C20.8352 3.93153 20.6413 3.88243 20.4434 3.84844C20.2455 3.81445 19.9274 3.75402 19.7412 3.72003C19.5511 3.68227 19.2446 3.62184 19.0545 3.58407C18.8644 3.55008 18.5656 3.48588 18.3872 3.45189C18.2087 3.41412 17.8169 3.33103 17.522 3.27061C17.2233 3.21018 16.8004 3.12709 16.5831 3.08555C16.3659 3.04401 16.0245 2.96847 15.8266 2.9156C15.6287 2.85895 15.3494 2.79852 15.2136 2.77586C15.074 2.7532 14.814 2.7041 14.6356 2.67011C14.4571 2.63235 14.1661 2.57192 13.9877 2.53415C13.8092 2.49639 13.5143 2.43596 13.3359 2.39819C13.1574 2.3642 12.525 2.23957 11.9314 2.11872C11.334 2.00164 10.7598 1.87323 10.6473 1.83169C10.5386 1.79015 10.3447 1.75616 10.2166 1.75616C10.0886 1.75616 9.94894 1.72972 9.91014 1.69573C9.87134 1.65796 9.7084 1.61264 9.54933 1.59376C9.39027 1.5711 9.09929 1.51823 8.89755 1.47668C8.69969 1.43514 8.3932 1.37094 8.21473 1.33695C8.03627 1.30296 7.35345 1.15944 6.69779 1.0197C6.04601 0.87619 5.36319 0.732676 5.18473 0.69491C5.00626 0.657143 4.71141 0.596716 4.53294 0.562726C4.35448 0.524959 4.04799 0.464532 3.85013 0.426765C3.65226 0.388998 3.32637 0.324795 3.12851 0.283251C2.93065 0.245484 2.62028 0.177504 2.44181 0.135961C2.26335 0.0944171 1.87538 0.0415435 1.57665 0.0226601C1.07618 -0.00755337 1.01798 0.00377668 0.781323 0.173727Z" fill="#F1F1F1"/>
</svg>
